<svg width="252" height="31" viewBox="0 0 252 31" fill="none" xmlns="http://www.w3.org/2000/svg">
<path d="M219.913 30V0.599976H224.407L248.263 24.666L248.011 25.044C247.871 24.204 247.745 23.308 247.633 22.356C247.549 21.376 247.479 20.382 247.423 19.374C247.367 18.338 247.311 17.302 247.255 16.266C247.227 15.202 247.199 14.166 247.171 13.158C247.171 12.15 247.171 11.184 247.171 10.26V0.599976H251.707V30H247.129L223.567 6.81598L223.609 6.22798C223.665 6.73198 223.721 7.33398 223.777 8.03398C223.833 8.73398 223.903 9.48998 223.987 10.302C224.071 11.114 224.141 11.954 224.197 12.822C224.281 13.662 224.337 14.516 224.365 15.384C224.421 16.224 224.449 17.022 224.449 17.778V30H219.913Z" fill="white"/>
<path d="M189.146 30.4199C186.542 30.4199 184.162 30.0419 182.006 29.2859C179.85 28.5019 177.974 27.4239 176.378 26.0519C174.782 24.6519 173.55 23.0419 172.682 21.2219C171.814 19.3739 171.38 17.3999 171.38 15.2999C171.38 13.1999 171.814 11.2399 172.682 9.41993C173.55 7.57193 174.782 5.96193 176.378 4.58993C177.974 3.18993 179.85 2.11193 182.006 1.35593C184.162 0.571932 186.542 0.179932 189.146 0.179932C191.722 0.179932 194.088 0.571932 196.244 1.35593C198.4 2.11193 200.276 3.18993 201.872 4.58993C203.468 5.96193 204.7 7.57193 205.568 9.41993C206.464 11.2399 206.912 13.1999 206.912 15.2999C206.912 17.3999 206.464 19.3739 205.568 21.2219C204.7 23.0419 203.468 24.6519 201.872 26.0519C200.276 27.4239 198.4 28.5019 196.244 29.2859C194.088 30.0419 191.722 30.4199 189.146 30.4199ZM189.146 26.0099C191.078 26.0099 192.842 25.7439 194.438 25.2119C196.034 24.6519 197.42 23.8959 198.596 22.9439C199.772 21.9639 200.682 20.8299 201.326 19.5419C201.97 18.2259 202.292 16.8119 202.292 15.2999C202.292 13.7879 201.97 12.3879 201.326 11.0999C200.682 9.78393 199.772 8.64993 198.596 7.69793C197.42 6.71793 196.034 5.96193 194.438 5.42993C192.842 4.86993 191.078 4.58993 189.146 4.58993C187.214 4.58993 185.436 4.86993 183.812 5.42993C182.216 5.96193 180.83 6.71793 179.654 7.69793C178.478 8.64993 177.568 9.78393 176.924 11.0999C176.308 12.3879 176 13.7879 176 15.2999C176 16.8119 176.308 18.2259 176.924 19.5419C177.568 20.8299 178.478 21.9639 179.654 22.9439C180.83 23.8959 182.216 24.6519 183.812 25.2119C185.436 25.7439 187.214 26.0099 189.146 26.0099Z" fill="white"/>
<path d="M131.606 30V0.599976H148.784C150.52 0.599976 152.102 1.00598 153.53 1.81798C154.986 2.60198 156.148 3.67998 157.016 5.05198C157.884 6.42398 158.318 7.94998 158.318 9.62998C158.318 11.394 157.842 13.004 156.89 14.46C155.938 15.888 154.678 17.036 153.11 17.904C151.542 18.744 149.82 19.164 147.944 19.164H136.142V30H131.606ZM154.37 30L144.374 16.728L149.204 15.678L160.04 30.042L154.37 30ZM136.142 14.796H147.524C148.588 14.796 149.568 14.558 150.464 14.082C151.388 13.606 152.116 12.976 152.648 12.192C153.208 11.408 153.488 10.554 153.488 9.62998C153.488 8.76198 153.208 7.97798 152.648 7.27798C152.116 6.57798 151.388 6.01798 150.464 5.59798C149.568 5.17798 148.588 4.96798 147.524 4.96798H136.142V14.796Z" fill="white"/>
<path d="M87.2275 30V0.599976H102.096C104.784 0.599976 107.15 0.991976 109.194 1.77598C111.266 2.55998 113.002 3.63798 114.402 5.00998C115.802 6.35398 116.852 7.90798 117.552 9.67198C118.252 11.436 118.602 13.312 118.602 15.3C118.602 17.316 118.252 19.22 117.552 21.012C116.852 22.776 115.802 24.33 114.402 25.674C113.002 27.018 111.266 28.082 109.194 28.866C107.15 29.622 104.784 30 102.096 30H87.2275ZM91.7635 26.094L91.6375 25.632H101.886C103.986 25.632 105.778 25.366 107.262 24.834C108.774 24.302 110.006 23.56 110.958 22.608C111.91 21.656 112.61 20.564 113.058 19.332C113.534 18.072 113.772 16.728 113.772 15.3C113.772 13.9 113.534 12.584 113.058 11.352C112.61 10.12 111.91 9.02798 110.958 8.07598C110.006 7.09598 108.774 6.33998 107.262 5.80798C105.778 5.24798 103.986 4.96798 101.886 4.96798H91.5115L91.7635 4.58998V26.094Z" fill="white"/>
<path d="M41.7754 30L56.1394 0.599976H61.4314L75.7114 30H70.7134L60.8434 9.75598C60.5914 9.22398 60.3394 8.70598 60.0874 8.20198C59.8354 7.69798 59.5834 7.19398 59.3314 6.68998C59.1074 6.18598 58.8834 5.65398 58.6594 5.09398C58.4354 4.53398 58.2114 3.91798 57.9874 3.24598L59.3314 3.20398C59.0794 3.87598 58.8274 4.50598 58.5754 5.09398C58.3514 5.68198 58.1134 6.24198 57.8614 6.77398C57.6094 7.30598 57.3574 7.83798 57.1054 8.36998C56.8534 8.87398 56.6014 9.39198 56.3494 9.92398L46.5634 30H41.7754ZM48.0334 23.112L49.8394 18.744H67.2694L67.9834 23.112H48.0334Z" fill="white"/>
<path d="M25.7176 30V0.599976H30.2536V30H25.7176ZM0.643555 30V0.599976H5.17956V30H0.643555ZM2.61756 17.694L2.65955 13.326H27.7336V17.694H2.61756Z" fill="white"/>
</svg>
